<svg style="display: none;">
  <symbol id="mobile" xmlns="http://www.w3.org/2000/svg" viewBox="0 0 24 24">
    <path fill-rule="evenodd"
      d="M7 1h10a3 3 0 013 3v16a3 3 0 01-3 3H7a3 3 0 01-3-3V4a3 3 0 013-3zm0 2a1 1 0 00-1 1v16a1 1 0 001 1h10a1 1 0 001-1V4a1 1 0 00-1-1H7zm5 17a2 2 0 100-4 2 2 0 000 4z"
      clip-rule="evenodd"></path>
  </symbol>
  <symbol id="bookStationary" xmlns="http://www.w3.org/2000/svg" viewBox="0 0 24 24">
    <path fill-rule="evenodd"
      d="M6.293 6.793L5 8.086 3.414 6.5 6.5 3.414 11.086 8 8 11.086 6.414 9.5l1.293-1.293a1 1 0 00-1.414-1.414zm-5 .414L6.586 12.5l-3.28 3.28a.994.994 0 00-.275.474l-1.496 5.483a1 1 0 001.228 1.228l5.483-1.496a.993.993 0 00.474-.274l3.28-3.28 5.293 5.292a1 1 0 001.414 0l4.5-4.5a1 1 0 000-1.414L17.914 12l3.879-3.879a3 3 0 000-4.242L20.62 2.707a3 3 0 00-4.242 0L12.5 6.586 7.207 1.293a1 1 0 00-1.414 0l-4.5 4.5a1 1 0 000 1.414zM6.074 19.99l-1.563-1.563-.586 2.149 2.15-.586zM15.5 6.414L18.086 9 8 19.086 5.414 16.5 15.5 6.414zm4 1.172L16.914 5l.879-.879a1 1 0 011.414 0l1.172 1.172a1 1 0 010 1.414l-.879.879zm-4.5 10.5L13.414 16.5l3.086-3.086L21.086 18 18 21.086 16.414 19.5l1.293-1.293a1 1 0 00-1.414-1.414L15 18.086z"
      clip-rule="evenodd"></path>
  </symbol>
  <symbol id="electronic" xmlns="http://www.w3.org/2000/svg" viewBox="0 0 24 24">
    <path fill-rule="evenodd"
      d="M4 5a1 1 0 011-1h14a1 1 0 011 1v8.723l2.858 4.762A1 1 0 0122 20H2a1 1 0 01-.857-1.515L4 13.723V5zm2 8h12V6H6v7zm-.434 2l-1.8 3h16.468l-1.8-3H5.566z"
      clip-rule="evenodd"></path>
  </symbol>
  <symbol id="homeKitchen" xmlns="http://www.w3.org/2000/svg" viewBox="0 0 24 24">
    <path fill-rule="evenodd"
      d="M7 3h10c1.56 0 2.898 1.066 2.994 2.5l.006.167v2.869a3.5 3.5 0 011.001 6.627L21 18a2 2 0 01-2 2v1h-2v-1H7v1H5v-1a2 2 0 01-2-2v-2.837a3.5 3.5 0 011-6.628V5.667c0-1.461 1.28-2.581 2.821-2.662L7 3zm1 11h8v-2l.005-.192A3.501 3.501 0 0118 8.837v-3.17c0-.3-.35-.614-.867-.661L17 5H7c-.543 0-.936.292-.993.592L6 5.667l.001 3.17A3.5 3.5 0 018 12v2zm-5-2a1.5 1.5 0 013 0v3a1 1 0 001 1h10a1 1 0 001-1v-3l.007-.145A1.5 1.5 0 0121 12l-.007.145A1.5 1.5 0 0119.5 13.5H19V18H5v-4.5h-.5A1.5 1.5 0 013 12z"
      clip-rule="evenodd"></path>
  </symbol>
  <symbol id="catHomeElectronic" xmlns="http://www.w3.org/2000/svg" viewBox="0 0 24 25">
    <path
      d="M5.738 5.989v2.99h-1.5V5.99h1.5zM5.738 12.968v2.991h-1.5v-2.991h1.5zM18.806 20.793a.877.877 0 11-1.754 0 .877.877 0 011.754 0z">
    </path>
    <path fill-rule="evenodd"
      d="M15.571 7.711V1.95a.95.95 0 00-.95-.95H1.95a.95.95 0 00-.95.95V24h22v-3.414c0-.926-.42-1.753-1.078-2.304l.89-10.57h-3.72v-1h-2.5v1h-1.02zM3 3v7.253h7.13V9.71a2 2 0 012-2h1.441V3H3zm9.684 19v-1.414c0-1.001.49-1.888 1.243-2.433l-.212-2.516h-1.584a2 2 0 01-2-2v-1.884H3V22h9.684zm.532-12.291H12.13v3.928h1.416l-.331-3.928zm2.468 9.877H20a1 1 0 011 1V22h-6.316v-1.414a1 1 0 011-1zm-.46-9.875l.662 7.867h1.294v-.869h-.69v-1.5h2.875v1.5h-.685v.869h1.294l.663-7.867h-5.414z"
      clip-rule="evenodd"></path>
  </symbol>
  <symbol id="catHealth" xmlns="http://www.w3.org/2000/svg" viewBox="0 0 24 24">
    <path
      d="M20.999 4.017a2 2 0 012 2v14.984a2 2 0 01-2 2H3.001a2 2 0 01-2-2V9.273a2 2 0 012-2H9.84V6.017a2 2 0 012-2h9.159zm-9.408 5.256h-8.59v11.728h8.59V9.273zm9.408-3.256H11.84v1.271a2 2 0 011.751 1.985v3.229h1.932v-2.25h1.5v2.25h2.25v1.5h-2.25v2.25h-1.5v-2.25h-1.932v7h7.408V6.018zm-10.66 12.219v1.5H4.252v-1.5h6.087zm-1.044-7.93c.69 0 1.25.56 1.25 1.25v4.264c0 .69-.56 1.25-1.25 1.25H5.297c-.69 0-1.25-.56-1.25-1.25v-4.264c0-.69.56-1.25 1.25-1.25zm-.25 1.5H5.547v3.764h3.498v-3.764zM20.919.999v2h-9v-2h9z">
    </path>
  </symbol>
</svg>